HIERARCHY
ROOT Hips
{
 OFFSET 0.000000 0.000000 0.000000
 CHANNELS 6 Xposition Yposition Zposition Yrotation Xrotation Zrotation
 JOINT Chest
 {
  OFFSET 0.000000 9.585900 0.002600
  CHANNELS 3 Yrotation Xrotation Zrotation
  JOINT Chest2
  {
   OFFSET 0.000000 9.601200 -0.005300
   CHANNELS 3 Yrotation Xrotation Zrotation
   JOINT Chest3
   {
    OFFSET 0.000000 9.561800 0.000000
    CHANNELS 3 Yrotation Xrotation Zrotation
    JOINT Chest4
    {
     OFFSET 0.000000 9.552100 0.000000
     CHANNELS 3 Yrotation Xrotation Zrotation
     JOINT Neck
     {
      OFFSET 0.000000 14.453000 0.000000
      CHANNELS 3 Yrotation Xrotation Zrotation
      JOINT Head
      {
       OFFSET 0.000000 8.936500 -0.011300
       CHANNELS 3 Yrotation Xrotation Zrotation
       End Site
       {
        OFFSET 0.000000 17.073600 -0.006000
       }
      }
     }
     JOINT RightCollar
     {
      OFFSET -2.921100 9.558500 0.000000
      CHANNELS 3 Yrotation Xrotation Zrotation
      JOINT RightShoulder
      {
       OFFSET -13.519700 0.000000 0.000000
       CHANNELS 3 Yrotation Xrotation Zrotation
       JOINT RightElbow
       {
        OFFSET 0.000000 -29.696600 0.000000
        CHANNELS 3 Yrotation Xrotation Zrotation
        JOINT RightWrist
        {
         OFFSET 0.000000 -24.004700 0.000000
         CHANNELS 3 Yrotation Xrotation Zrotation
         End Site
         {
          OFFSET 0.000000 -17.728500 0.000000
         }
        }
       }
      }
     }
     JOINT LeftCollar
     {
      OFFSET 2.921100 9.558500 0.000000
      CHANNELS 3 Yrotation Xrotation Zrotation
      JOINT LeftShoulder
      {
       OFFSET 13.519700 0.000000 0.000000
       CHANNELS 3 Yrotation Xrotation Zrotation
       JOINT LeftElbow
       {
        OFFSET 0.000000 -29.696600 0.000000
        CHANNELS 3 Yrotation Xrotation Zrotation
        JOINT LeftWrist
        {
         OFFSET 0.000000 -24.004700 0.000000
         CHANNELS 3 Yrotation Xrotation Zrotation
         End Site
         {
          OFFSET 0.000000 -17.728500 0.000000
         }
        }
       }
      }
     }
    }
   }
  }
 }
 JOINT RightHip
 {
  OFFSET -7.771700 -0.012900 -0.001300
  CHANNELS 3 Yrotation Xrotation Zrotation
  JOINT RightKnee
  {
   OFFSET 0.000000 -40.869800 0.001200
   CHANNELS 3 Yrotation Xrotation Zrotation
   JOINT RightAnkle
   {
    OFFSET 0.000000 -39.717900 0.002100
    CHANNELS 3 Yrotation Xrotation Zrotation
    JOINT RightToe
    {
     OFFSET 0.000000 -4.965400 11.033500
     CHANNELS 3 Yrotation Xrotation Zrotation
     End Site
     {
      OFFSET 0.000000 -1.423100 5.872300
     }
    }
   }
  }
 }
 JOINT LeftHip
 {
  OFFSET 7.771700 -0.012900 -0.001300
  CHANNELS 3 Yrotation Xrotation Zrotation
  JOINT LeftKnee
  {
   OFFSET 0.000000 -40.869800 0.001200
   CHANNELS 3 Yrotation Xrotation Zrotation
   JOINT LeftAnkle
   {
    OFFSET 0.000000 -39.717900 0.002100
    CHANNELS 3 Yrotation Xrotation Zrotation
    JOINT LeftToe
    {
     OFFSET 0.000000 -4.965400 11.033500
     CHANNELS 3 Yrotation Xrotation Zrotation
     End Site
     {
      OFFSET 0.000000 -1.423100 5.872300
     }
    }
   }
  }
 }
}
MOTION
Frames: 16
Frame Time: 0.008333
-25.115200 48.054834 28.521260 176.578153 -36.796567 0.762666 -0.709107 16.033571 2.147079 -0.750517 9.188863 1.510816 -0.902503 11.488871 1.875631 -0.750550 9.188876 1.510842 -2.161229 20.819512 0.138772 -3.964918 2.898720 0.877002 9.830641 3.872575 -0.856764 12.646258 -18.178598 -7.581509 66.985947 -60.165312 -44.439591 14.884573 -20.287927 -59.322547 -5.451096 1.500936 -7.333546 -1.553748 -19.740832 -5.604554 -93.869910 -48.736854 58.871261 -5.887439 -9.817186 60.405633 28.643825 -43.355110 -28.897253 -114.170178 67.631877 -106.369447 0.403968 -4.688233 5.744634 -0.123117 -0.816456 0.217182 -8.912595 -47.529978 8.455574 108.718812 78.006635 107.108424 -3.546624 -10.305076 -6.178392 0.401765 0.597442 0.060212
-25.100617 48.050880 28.529877 176.555408 -36.754510 0.809429 -0.717156 16.047352 2.127947 -0.743187 9.174893 1.501795 -0.903075 11.505060 1.874134 -0.762542 9.257824 1.519170 -2.151667 20.784901 0.088339 -3.933503 2.832604 0.783751 9.874141 3.779332 -0.923928 12.803090 -18.134892 -7.545588 66.886480 -60.189627 -44.472978 14.884604 -20.384766 -59.412085 -5.464337 1.410368 -7.305233 -1.578697 -19.596301 -5.654434 -94.052231 -48.731225 59.273700 -5.939805 -9.761640 60.453395 28.814590 -43.376686 -28.908214 -114.064310 67.561818 -106.322247 0.383367 -4.616183 5.859472 -0.151569 -0.825012 0.161232 -8.982789 -47.575930 8.377217 108.476386 77.909473 106.944749 -3.534940 -10.268628 -6.311802 0.421176 0.587230 0.067833
-25.083088 48.047906 28.538846 176.541850 -36.713032 0.836174 -0.727549 16.057176 2.119378 -0.751562 9.208997 1.505241 -0.908428 11.530035 1.872635 -0.753325 9.228573 1.509436 -2.145689 20.783952 0.040233 -3.896187 2.796940 0.685191 9.900240 3.732272 -0.977601 12.990478 -18.104920 -7.525000 66.676136 -60.221911 -44.408098 14.880348 -20.481492 -59.523068 -5.465099 1.350778 -7.287689 -1.653668 -19.472256 -5.684813 -94.111836 -48.764370 59.556618 -5.981705 -9.718021 60.496652 28.961249 -43.407901 -28.895426 -113.969681 67.477450 -106.267437 0.349832 -4.552767 5.887462 -0.153475 -0.831003 0.169439 -9.065318 -47.613314 8.311337 108.173232 77.804720 106.725862 -3.520631 -10.244783 -6.442271 0.431733 0.593314 0.071291
-25.074890 48.045838 28.547695 176.525739 -36.672182 0.921076 -0.752332 16.061404 2.049556 -0.755320 9.222331 1.505141 -0.920898 11.555231 1.872572 -0.729577 9.169611 1.493949 -2.150226 20.826785 0.000476 -3.852515 2.788409 0.586383 9.901808 3.740075 -1.008440 13.175174 -18.089012 -7.518971 66.386993 -60.274788 -44.254850 14.876499 -20.577411 -59.654800 -5.464054 1.333114 -7.282233 -1.750215 -19.365049 -5.687465 -94.084538 -48.848733 59.732143 -6.018204 -9.686911 60.539758 29.106195 -43.411658 -28.975162 -113.868187 67.450511 -106.234667 0.412216 -4.499080 5.892668 -0.250244 -0.838581 0.186272 -9.077622 -47.654052 8.154863 107.824942 77.694491 106.464719 -3.525936 -10.216056 -6.586362 0.462190 0.594756 0.092144
-25.054021 48.044307 28.557435 176.515689 -36.633882 0.924943 -0.755647 16.055261 2.057081 -0.748596 9.203761 1.499874 -0.944986 11.590569 1.873935 -0.731493 9.190806 1.498126 -2.129875 20.788833 -0.035203 -3.808816 2.823297 0.471084 9.916569 3.708188 -1.058149 13.306416 -18.092546 -7.518604 66.069832 -60.356485 -44.023862 14.883320 -20.663431 -59.786908 -5.446566 1.295565 -7.265185 -1.817644 -19.309281 -5.702405 -94.007281 -48.984421 59.819069 -6.048672 -9.656905 60.582094 29.240274 -43.456769 -28.905420 -113.751472 67.324064 -106.159702 0.336880 -4.429083 5.896669 -0.205992 -0.842641 0.223696 -9.171173 -47.678082 8.106705 107.465563 77.585348 106.198398 -3.495148 -10.202565 -6.740871 0.460840 0.615198 0.116365
-25.033412 48.043239 28.567349 176.503868 -36.598580 0.927517 -0.748354 16.030536 2.063574 -0.766772 9.237249 1.504148 -0.953418 11.589771 1.861908 -0.770579 9.237522 1.499837 -2.069850 20.729779 -0.067247 -3.762231 2.863079 0.359007 9.968710 3.649726 -1.101782 13.356302 -18.109403 -7.516179 65.766567 -60.458856 -43.739479 14.904396 -20.736007 -59.907848 -5.381456 1.246365 -7.246652 -1.873497 -19.276727 -5.704180 -93.895371 -49.164955 59.826826 -6.067772 -9.626166 60.618138 29.360079 -43.502964 -28.825100 -113.619527 67.199027 -106.078794 0.263882 -4.358899 5.920262 -0.157071 -0.841884 0.177803 -9.257874 -47.696528 8.055316 107.099430 77.477839 105.926773 -3.464847 -10.196268 -6.864627 0.459702 0.642294 0.114159
-25.017228 48.042788 28.576617 176.489107 -36.570000 0.952663 -0.761465 16.041467 2.043951 -0.771547 9.237363 1.499824 -0.951969 11.595677 1.854261 -0.760692 9.215170 1.499314 -2.066494 20.758184 -0.110091 -3.727221 2.850040 0.336558 9.978766 3.637527 -1.109727 13.454254 -18.089313 -7.529690 65.417107 -60.563716 -43.487075 14.935577 -20.792470 -60.014039 -5.369968 1.261671 -7.219150 -1.905564 -19.255492 -5.697590 -93.752547 -49.385820 59.764032 -6.075156 -9.598525 60.646328 29.465537 -43.533188 -28.781857 -113.483628 67.111781 -106.008093 0.230376 -4.288263 5.983599 -0.148638 -0.851381 0.147160 -9.314750 -47.710306 7.966866 106.741318 77.375460 105.661405 -3.440645 -10.190592 -6.946430 0.469773 0.667869 0.076883
-25.003848 48.040499 28.588073 176.459292 -36.525870 0.995556 -0.764649 16.043456 2.013074 -0.772390 9.238148 1.495564 -0.943386 11.598420 1.850129 -0.757417 9.190598 1.499376 -2.059912 20.842321 -0.197860 -3.694718 2.782108 0.367363 9.959712 3.650174 -1.127092 13.512573 -18.055245 -7.518741 65.210851 -60.689323 -43.353283 14.972720 -20.824091 -60.098208 -5.350752 1.288919 -7.180962 -1.927135 -19.258227 -5.694310 -93.588989 -49.629967 59.648504 -6.072537 -9.576659 60.664611 29.591730 -43.576052 -28.761761 -113.349916 67.028733 -105.941824 0.209425 -4.229997 6.003270 -0.157814 -0.850618 0.186495 -9.357591 -47.740856 7.870164 106.406907 77.284241 105.415105 -3.393403 -10.181125 -7.062881 0.471215 0.692795 0.065567
-24.992999 48.037432 28.599829 176.427011 -36.478148 1.047293 -0.762440 16.038533 1.977230 -0.772213 9.239704 1.491263 -0.931421 11.610444 1.848409 -0.768687 9.231060 1.489314 -2.027504 20.805049 -0.227748 -3.656991 2.783840 0.295484 9.953930 3.586208 -1.155794 13.500654 -18.025966 -7.480120 65.085312 -60.809719 -43.258780 15.010164 -20.831963 -60.162870 -5.329864 1.211698 -7.145975 -1.932049 -19.237480 -5.673875 -93.426092 -49.861509 59.502981 -6.062943 -9.562096 60.677097 29.721515 -43.622372 -28.754808 -113.226015 66.948702 -105.890435 0.188297 -4.175903 6.024459 -0.161782 -0.847271 0.178526 -9.403751 -47.774955 7.771568 106.098637 77.202431 105.184600 -3.340102 -10.170822 -7.176536 0.471075 0.715086 0.063030
-24.982037 48.036045 28.608168 176.407136 -36.452855 1.084988 -0.760411 16.056801 1.954860 -0.773241 9.284607 1.490269 -0.920133 11.587123 1.842734 -0.764114 9.255500 1.484547 -2.011741 20.779115 -0.260361 -3.589921 2.798445 0.140256 9.923451 3.528282 -1.190550 13.501087 -18.033748 -7.446142 64.911770 -60.909725 -43.128998 15.048655 -20.827017 -60.212781 -5.331295 1.129958 -7.122080 -1.931414 -19.220057 -5.658015 -93.288341 -50.043457 59.350525 -6.051228 -9.549417 60.694003 29.819795 -43.654794 -28.723835 -113.111719 66.870876 -105.850681 0.155400 -4.109699 6.068994 -0.154361 -0.858965 0.147795 -9.478044 -47.785413 7.689893 105.825174 77.124151 104.977013 -3.286266 -10.156534 -7.284539 0.465345 0.729413 0.066712
-24.970805 48.033882 28.616085 176.373565 -36.424425 1.122952 -0.747690 16.071733 1.941150 -0.764842 9.254920 1.484257 -0.911339 11.648213 1.841819 -0.756610 9.266962 1.481985 -1.998452 20.760584 -0.294446 -3.544572 2.772481 0.044882 9.876769 3.500223 -1.258121 13.445165 -18.020760 -7.343506 64.922143 -61.004391 -43.168996 15.090600 -20.820559 -60.250968 -5.341507 1.048739 -7.099113 -1.928098 -19.216824 -5.659128 -93.192667 -50.160211 59.213715 -6.038888 -9.537161 60.722489 29.922488 -43.693991 -28.686358 -113.001071 66.794610 -105.812017 0.111227 -4.049302 6.134237 -0.137134 -0.865078 0.109913 -9.562051 -47.798599 7.632256 105.600647 77.048086 104.805931 -3.228002 -10.142986 -7.384709 0.464911 0.744963 0.040715
-24.962708 48.031603 28.622377 176.333755 -36.397731 1.178429 -0.730877 16.093178 1.913184 -0.757268 9.266883 1.481910 -0.899020 11.669721 1.839230 -0.746684 9.279305 1.479736 -1.998703 20.701076 -0.304410 -3.501557 2.757982 -0.046553 9.850535 3.434212 -1.290261 13.363718 -17.961432 -7.259351 64.981924 -61.091809 -43.266125 15.138171 -20.822144 -60.284910 -5.356690 0.965497 -7.075477 -1.937283 -19.204871 -5.650172 -93.166413 -50.233639 59.150602 -6.058618 -9.524659 60.769479 30.029179 -43.718930 -28.683016 -112.898045 66.745252 -105.779619 0.107095 -3.998000 6.170405 -0.162022 -0.869685 0.121274 -9.631710 -47.813605 7.565818 105.431676 76.980715 104.679259 -3.166389 -10.126215 -7.500794 0.465097 0.751440 0.038313
-24.951885 48.028797 28.627633 176.290392 -36.368139 1.215240 -0.708809 16.120212 1.905827 -0.743440 9.345650 1.482475 -0.883551 11.617687 1.834140 -0.748264 9.244626 1.482065 -1.971813 20.737621 -0.354457 -3.503052 2.684482 -0.032218 9.833104 3.418405 -1.313247 13.297886 -17.917750 -7.188372 65.023914 -61.174800 -43.362585 15.195373 -20.834065 -60.318587 -5.368187 0.943422 -7.071693 -1.960790 -19.214641 -5.637814 -93.155659 -50.257157 59.125570 -6.048543 -9.521153 60.800004 30.129184 -43.760798 -28.643786 -112.796925 66.677601 -105.746196 0.091985 -3.947098 6.150232 -0.175853 -0.873517 0.189482 -9.721522 -47.828585 7.542641 105.304760 76.923110 104.585687 -3.103364 -10.115396 -7.606479 0.456782 0.757090 0.053962
-24.937938 48.025754 28.631324 176.248178 -36.337806 1.228485 -0.678450 16.145612 1.922755 -0.728858 9.354749 1.477757 -0.866290 11.633252 1.832093 -0.728748 9.281434 1.478447 -1.958788 20.701164 -0.388744 -3.469870 2.615720 -0.097410 9.795494 3.317106 -1.323933 13.237651 -17.853548 -7.121790 65.096093 -61.256027 -43.499824 15.258380 -20.850579 -60.353981 -5.406504 0.850795 -7.053298 -1.992694 -19.226666 -5.637648 -93.188876 -50.224343 59.138775 -6.034349 -9.592651 60.856204 30.214846 -43.819188 -28.563817 -112.698412 66.588571 -105.712805 0.033686 -3.894316 6.168209 -0.127521 -0.876492 0.144735 -9.828466 -47.839879 7.557662 105.196661 76.867602 104.504753 -3.066120 -10.121378 -7.620386 0.463824 0.772818 -0.005458
-24.933550 48.021929 28.633760 176.171622 -36.297454 1.314262 -0.639484 16.193572 1.880139 -0.710425 9.298890 1.476628 -0.842359 11.677596 1.827337 -0.704660 9.316206 1.474159 -1.974425 20.620531 -0.382347 -3.421895 2.589660 -0.202329 9.741753 3.253449 -1.329022 13.193223 -17.821915 -7.065483 65.204769 -61.333325 -43.673156 15.320534 -20.867524 -60.399001 -5.452882 0.754398 -7.025631 -2.035563 -19.226366 -5.642302 -93.269037 -50.159538 59.200976 -6.048327 -9.629989 60.924479 30.362366 -43.855074 -28.574956 -112.618475 66.524370 -105.696816 -0.003282 -3.873736 6.189395 -0.107631 -0.858147 0.143666 -9.834231 -47.868651 7.500900 105.114422 76.805172 104.407761 -2.978675 -10.121020 -7.637336 0.373233 0.779616 0.023599
-24.920997 48.019559 28.632200 176.113652 -36.274632 1.335779 -0.599511 16.231141 1.885687 -0.686592 9.312754 1.474788 -0.819762 11.675860 1.826669 -0.684790 9.327186 1.472671 -1.959767 20.609403 -0.414255 -3.413269 2.526855 -0.224216 9.689368 3.225533 -1.319796 13.155733 -17.799576 -7.024722 65.355190 -61.402278 -43.876780 15.380781 -20.884610 -60.453306 -5.503840 0.712115 -7.016280 -2.126540 -19.232339 -5.652586 -93.345217 -50.034938 59.330218 -6.071794 -9.683003 60.985272 30.436131 -43.901288 -28.519397 -112.556201 66.464961 -105.691241 -0.009308 -3.840653 6.215263 -0.112059 -0.863485 0.140763 -9.887082 -47.874466 7.507252 105.046309 76.755423 104.389391 -2.957363 -10.128677 -7.726179 0.384199 0.782683 0.049078
